Coordinates
version=1
nRows=33
nColumns=38
inDegrees=no

Units are S.I. units (second, meters, Newtons, ...)
If the header above contains a line with 'inDegrees', this indicates whether rotational values are in degrees (yes) or radians (no).

endheader
time	pelvis_tilt	pelvis_list	pelvis_rotation	pelvis_tx	pelvis_ty	pelvis_tz	hip_flexion_r	hip_adduction_r	hip_rotation_r	knee_angle_r	ankle_angle_r	subtalar_angle_r	mtp_angle_r	hip_flexion_l	hip_adduction_l	hip_rotation_l	knee_angle_l	ankle_angle_l	subtalar_angle_l	mtp_angle_l	lumbar_extension	lumbar_bending	lumbar_rotation	arm_flex_r	arm_add_r	arm_rot_r	elbow_flex_r	pro_sup_r	wrist_flex_r	wrist_dev_r	arm_flex_l	arm_add_l	arm_rot_l	elbow_flex_l	pro_sup_l	wrist_flex_l	wrist_dev_l
0.41	-0.123708	1.52646	-1.42216	0.742363	0.758121	1.05847	0.12613	0.057276	-0.0815838	0.482499	-0.0835135	0	0	0.191964	-0.0365795	-0.202524	1.17366	-0.0696022	0	0	-0.193676	0.137332	-0.101768	-0.201748	-0.236937	-0.0934625	0.431118	0.268256	0	0	-0.226127	-0.511296	0.499659	0.829937	1.29641	0	0
0.42	-0.0376336	1.52653	-1.51233	0.741841	0.74817	1.0593	0.110574	0.0539031	-0.082382	0.472789	-0.0805218	0	0	0.208754	-0.0326973	-0.205555	1.15327	-0.0642176	0	0	-0.193263	0.132168	-0.0988985	-0.200485	-0.237023	-0.0926366	0.427668	0.268334	0	0	-0.233026	-0.502307	0.50529	0.816612	1.29297	0	0
0.43	0.0495231	1.52573	-1.60209	0.741573	0.738384	1.06007	0.0948098	0.0496832	-0.084601	0.463643	-0.077926	0	0	0.224262	-0.0277081	-0.206731	1.1286	-0.0603875	0	0	-0.193868	0.12725	-0.0973743	-0.19903	-0.237061	-0.0921584	0.42528	0.268351	0	0	-0.238936	-0.493159	0.51088	0.802935	1.29028	0	0
0.44	0.131744	1.52452	-1.6862	0.741519	0.728707	1.06073	0.0792564	0.045118	-0.0876056	0.454799	-0.0755361	0	0	0.238623	-0.0219819	-0.207478	1.10018	-0.0574958	0	0	-0.194969	0.122602	-0.0966203	-0.197456	-0.237214	-0.091753	0.423709	0.268537	0	0	-0.244019	-0.483654	0.516662	0.788848	1.28707	0	0
0.45	0.207234	1.52293	-1.76376	0.741488	0.718993	1.06129	0.0636567	0.0405334	-0.0895128	0.445796	-0.0732406	0	0	0.251183	-0.0161412	-0.209005	1.06793	-0.0550415	0	0	-0.196157	0.117897	-0.0958588	-0.195993	-0.237316	-0.0910589	0.422374	0.269253	0	0	-0.248818	-0.474122	0.52285	0.77425	1.28372	0	0
0.46	0.279739	1.52145	-1.83909	0.741414	0.709286	1.06169	0.0487212	0.0361554	-0.0912286	0.436938	-0.0708799	0	0	0.262431	-0.0102926	-0.212193	1.0314	-0.0534879	0	0	-0.197138	0.112948	-0.0946291	-0.194405	-0.237495	-0.0899838	0.421287	0.270589	0	0	-0.253533	-0.464886	0.529613	0.759613	1.28034	0	0
0.47	0.352359	1.52028	-1.91511	0.741406	0.699632	1.06188	0.0348442	0.0315409	-0.0946109	0.428665	-0.0683337	0	0	0.27271	-0.00431147	-0.216885	0.990838	-0.0528152	0	0	-0.197667	0.10777	-0.0929457	-0.1927	-0.237775	-0.0889049	0.420643	0.272359	0	0	-0.257817	-0.455984	0.537312	0.745077	1.27591	0	0
0.48	0.419851	1.5185	-1.98682	0.741337	0.689691	1.06199	0.0190792	0.0269814	-0.0949597	0.418035	-0.0651519	0	0	0.279605	0.00133786	-0.224689	0.943979	-0.0532433	0	0	-0.197434	0.102401	-0.0908628	-0.19136	-0.238113	-0.087759	0.419646	0.274983	0	0	-0.261797	-0.446502	0.546315	0.728403	1.26881	0	0
0.49	0.46148	1.51669	-2.03272	0.741254	0.679713	1.06193	0.00270502	0.0236951	-0.0929516	0.407947	-0.062223	0	0	0.284508	0.00581929	-0.23268	0.894004	-0.0540575	0	0	-0.197915	0.0978182	-0.0885168	-0.189897	-0.238165	-0.0877958	0.41906	0.276698	0	0	-0.266377	-0.437868	0.554481	0.713926	1.25947	0	0
0.5	0.49199	1.51558	-2.06722	0.741255	0.669771	1.06164	-0.0133849	0.0213162	-0.0905494	0.397815	-0.0591769	0	0	0.288429	0.0098119	-0.240181	0.840402	-0.0562371	0	0	-0.198011	0.0939627	-0.0865508	-0.18831	-0.238132	-0.0890856	0.419167	0.277717	0	0	-0.270478	-0.429722	0.564201	0.699676	1.24656	0	0
0.51	0.520337	1.51541	-2.09904	0.741391	0.659818	1.06108	-0.0280466	0.0192391	-0.0903723	0.38836	-0.0557937	0	0	0.292159	0.0138616	-0.245109	0.784281	-0.0596806	0	0	-0.197067	0.0906602	-0.0846722	-0.187196	-0.238249	-0.0905294	0.42003	0.279007	0	0	-0.274374	-0.421629	0.573908	0.685629	1.23223	0	0
0.52	0.542722	1.51607	-2.12444	0.741539	0.649805	1.0603	-0.0419781	0.0179609	-0.0906439	0.379086	-0.0520046	0	0	0.295011	0.0174713	-0.24798	0.725247	-0.0644973	0	0	-0.195083	0.0880294	-0.0827795	-0.186242	-0.238185	-0.0924682	0.42086	0.279882	0	0	-0.278135	-0.413436	0.583541	0.670959	1.2171	0	0
0.53	0.560835	1.51735	-2.14491	0.741686	0.639781	1.05933	-0.0555323	0.0173563	-0.0907262	0.369839	-0.0481107	0	0	0.296819	0.0209112	-0.248208	0.663576	-0.070705	0	0	-0.19241	0.085892	-0.0811762	-0.185245	-0.238057	-0.0938461	0.421552	0.281441	0	0	-0.281723	-0.40551	0.592966	0.656545	1.20051	0	0
0.54	0.575779	1.51885	-2.16147	0.741891	0.62977	1.05818	-0.0688984	0.0170179	-0.0906506	0.360888	-0.0441813	0	0	0.297401	0.0244747	-0.245702	0.600002	-0.0789119	0	0	-0.189464	0.0840015	-0.0799789	-0.184009	-0.237753	-0.0950936	0.421922	0.283677	0	0	-0.284546	-0.39859	0.604725	0.642683	1.18116	0	0
0.55	0.587377	1.5206	-2.17413	0.742192	0.619736	1.05686	-0.0817525	0.0169113	-0.0912146	0.35295	-0.0403396	0	0	0.296926	0.0280885	-0.240799	0.535622	-0.0880964	0	0	-0.186146	0.0823116	-0.079023	-0.18262	-0.237151	-0.0969729	0.421845	0.285251	0	0	-0.287051	-0.392377	0.617557	0.629229	1.16312	0	0
0.56	0.601375	1.52257	-2.18892	0.742627	0.609639	1.05536	-0.0937213	0.0165514	-0.0926387	0.346578	-0.0362405	0	0	0.295728	0.0319473	-0.233892	0.47204	-0.0983451	0	0	-0.182551	0.0805377	-0.0780393	-0.18154	-0.236485	-0.099065	0.421836	0.286703	0	0	-0.289338	-0.386924	0.63035	0.617119	1.14421	0	0
0.57	0.616858	1.52455	-2.20501	0.74314	0.59949	1.0537	-0.104849	0.0158684	-0.0947652	0.342064	-0.0318387	0	0	0.294086	0.0358877	-0.225926	0.411119	-0.109679	0	0	-0.178837	0.0785775	-0.0769691	-0.180791	-0.235691	-0.101269	0.422038	0.288068	0	0	-0.291402	-0.382418	0.643935	0.606228	1.12604	0	0
0.58	0.633527	1.52613	-2.22294	0.743591	0.58922	1.05193	-0.115443	0.0146617	-0.0969543	0.33942	-0.0271536	0	0	0.2919	0.0398938	-0.21966	0.353409	-0.121922	0	0	-0.175145	0.0759931	-0.0746796	-0.181018	-0.234716	-0.103848	0.422687	0.289159	0	0	-0.293258	-0.378757	0.65901	0.595674	1.11253	0	0
0.59	0.63961	1.527	-2.23143	0.744022	0.57894	1.05012	-0.12563	0.0129574	-0.0991461	0.33956	-0.0221788	0	0	0.289004	0.0436763	-0.214711	0.300657	-0.133743	0	0	-0.173077	0.0730914	-0.0708517	-0.181787	-0.233902	-0.106275	0.424344	0.290375	0	0	-0.294632	-0.375768	0.672654	0.586479	1.09922	0	0
0.6	0.629386	1.52664	-2.22518	0.744412	0.568699	1.04837	-0.135592	0.0104274	-0.100945	0.342731	-0.0165735	0	0	0.284839	0.0471045	-0.210287	0.25359	-0.145461	0	0	-0.173436	0.0697017	-0.0655316	-0.182513	-0.233081	-0.108936	0.426815	0.291239	0	0	-0.294835	-0.373667	0.686969	0.57855	1.08271	0	0
0.61	0.627236	1.52591	-2.2272	0.744812	0.558362	1.04658	-0.144128	0.00695873	-0.104391	0.348915	-0.0111888	0	0	0.281499	0.0503706	-0.205571	0.21482	-0.154157	0	0	-0.173582	0.0654517	-0.0596151	-0.18357	-0.231709	-0.112248	0.428707	0.290856	0	0	-0.294316	-0.372362	0.702651	0.57049	1.06959	0	0
0.62	0.641258	1.52461	-2.24578	0.745117	0.547846	1.04479	-0.151357	0.00228142	-0.108985	0.357867	-0.00566225	0	0	0.278788	0.0535822	-0.200836	0.184311	-0.161281	0	0	-0.173235	0.0597945	-0.0530311	-0.185092	-0.2299	-0.114787	0.429802	0.290871	0	0	-0.293861	-0.371911	0.717361	0.562978	1.0566	0	0
0.63	0.66175	1.52249	-2.27111	0.745336	0.53719	1.04304	-0.15781	-0.00328344	-0.114672	0.369481	-3.61238e-05	0	0	0.276459	0.0566391	-0.196342	0.162929	-0.166748	0	0	-0.173077	0.0528956	-0.0464408	-0.186296	-0.227575	-0.116592	0.429824	0.290703	0	0	-0.294152	-0.37189	0.729357	0.555707	1.04502	0	0
0.64	0.676047	1.51937	-2.2913	0.745439	0.526518	1.04139	-0.16341	-0.00956875	-0.119832	0.384858	0.00598787	0	0	0.274294	0.0592319	-0.19399	0.15046	-0.170992	0	0	-0.174507	0.0452052	-0.0394106	-0.18705	-0.225089	-0.117699	0.429944	0.290628	0	0	-0.294381	-0.372698	0.739154	0.550007	1.03066	0	0
0.65	0.680474	1.51531	-2.30208	0.745504	0.515757	1.03985	-0.168418	-0.0163665	-0.12452	0.403979	0.0119841	0	0	0.272064	0.0615177	-0.193918	0.146104	-0.173608	0	0	-0.176979	0.0368757	-0.0322186	-0.188019	-0.222366	-0.118777	0.430432	0.290049	0	0	-0.294619	-0.374262	0.748327	0.545058	1.01635	0	0
0.66	0.694372	1.51105	-2.32257	0.745651	0.504839	1.03828	-0.169491	-0.0251507	-0.133736	0.431933	0.0182797	0	0	0.271029	0.0639768	-0.196077	0.150484	-0.173992	0	0	-0.17853	0.0277971	-0.0242406	-0.190504	-0.219567	-0.120177	0.431752	0.289117	0	0	-0.294266	-0.37717	0.760936	0.540937	1.00146	0	0
0.67	0.721515	1.5071	-2.35586	0.7459	0.493729	1.03667	-0.166189	-0.0359383	-0.146997	0.468409	0.0235131	0	0	0.271835	0.0664646	-0.200272	0.164064	-0.171875	0	0	-0.178118	0.0182812	-0.0162751	-0.194354	-0.216523	-0.122271	0.43333	0.287394	0	0	-0.293435	-0.380973	0.776132	0.536739	0.986469	0	0
0.68	0.734725	1.50359	-2.3752	0.746211	0.482358	1.03521	-0.167744	-0.0441849	-0.150989	0.493469	0.0251069	0	0	0.272368	0.0678016	-0.206518	0.182859	-0.169842	0	0	-0.1774	0.00973628	-0.00925617	-0.197949	-0.213766	-0.123367	0.434008	0.286353	0	0	-0.293859	-0.384158	0.785778	0.53279	0.9731	0	0
0.69	0.743294	1.5004	-2.38938	0.746646	0.470767	1.03384	-0.170745	-0.0516378	-0.151558	0.514871	0.0248107	0	0	0.272675	0.0686838	-0.212584	0.206206	-0.167833	0	0	-0.175723	0.00172679	-0.0026987	-0.202238	-0.21097	-0.124866	0.434491	0.284937	0	0	-0.294458	-0.387807	0.796169	0.528804	0.963105	0	0
0.7	0.750415	1.49739	-2.40168	0.747133	0.458908	1.0326	-0.174219	-0.0588833	-0.150236	0.535143	0.0223746	0	0	0.272123	0.0692959	-0.217653	0.232868	-0.166029	0	0	-0.173287	-0.00598204	0.00301489	-0.207041	-0.208187	-0.126216	0.434921	0.283891	0	0	-0.295261	-0.391602	0.805746	0.525007	0.953915	0	0
0.71	0.759113	1.49409	-2.4152	0.747709	0.446779	1.03156	-0.177631	-0.0668227	-0.14694	0.555505	0.0172204	0	0	0.269719	0.0704807	-0.221536	0.260082	-0.165666	0	0	-0.1704	-0.0137388	0.00722333	-0.211463	-0.205596	-0.126533	0.434465	0.28414	0	0	-0.296519	-0.395544	0.813484	0.522006	0.942023	0	0
0.72	0.773168	1.48925	-2.43396	0.748453	0.434429	1.03089	-0.180829	-0.0771733	-0.142666	0.577523	0.00913608	0	0	0.264671	0.0744457	-0.225918	0.280635	-0.170096	0	0	-0.167176	-0.0228896	0.010323	-0.214804	-0.203087	-0.125224	0.431494	0.285957	0	0	-0.297686	-0.399545	0.821548	0.518441	0.928565	0	0
0.73	0.794541	1.48211	-2.45921	0.749323	0.422015	1.0307	-0.183568	-0.0902888	-0.138124	0.601971	-0.002058	0	0	0.258096	0.0815555	-0.233646	0.292128	-0.18097	0	0	-0.163829	-0.0344367	0.0121562	-0.216572	-0.199869	-0.122957	0.425261	0.288549	0	0	-0.297876	-0.403826	0.832781	0.512731	0.91835	0	0
